# xmcd
#
# Track frame offsets:
#	150
#	23588
#	38233
#	55490
#	73718
#	92885
#	113040
#	124345
#	141362
#	159804
#	177579
#	194123
#	212989
#	232451
#	249406
#	270900
#	285839
#
# Disc length: 4072
#
# Revision: 2
# Processed by: cddbd v1.5.1PL0 Copyright (c) Steve Scherf et al.
# Submitted via: VOLTOCDX V1.0.24 
# Normalized: r1:TSWAP
#
DISCID=020fe611
DTITLE=Various Artist - Music Maestro Country Hits IV - Disc 5
DYEAR=2004
DGENRE=Karaoke
TTITLE0=Kid Rock - Sheryl Crow - Picture
TTITLE1=Kenny Chesney - No Shoes, No Shirt, No Problems
TTITLE2=Jimmy Wayne - Stay Gone
TTITLE3=Montgomery Gentry - Speed
TTITLE4=Tim McGraw - She's My Kind Of Rain
TTITLE5=Faith Hill - Tim McGraw - Just To Hear You Say That You Love Me
TTITLE6=Elvis Presley - Blue Christmas
TTITLE7=George Strait - Living And Living Well
TTITLE8=Mark Wills - And The Crowd Goes Wild
TTITLE9=Rascal Flatts - I Melt
TTITLE10=Diamond Rio - I Believe
TTITLE11=Andy Griggs - Practice Life
TTITLE12=Travis Tritt - Country Ain't Country
TTITLE13=Leann Rimes - Can't Fight The Moonlight
TTITLE14=Sherrie Austin - Streets Of Heaven
TTITLE15=Diamond Rio - Wrinkles
TTITLE16=Keith Urban - Who Wouldn't Wanna Be Me
EXTD=
EXTT0=
EXTT1=
EXTT2=
EXTT3=
EXTT4=
EXTT5=
EXTT6=
EXTT7=
EXTT8=
EXTT9=
EXTT10=
EXTT11=
EXTT12=
EXTT13=
EXTT14=
EXTT15=
EXTT16=
PLAYORDER=
